# xmcd
#
# Track frame offsets: 
#        150
#        9223
#        28023
#        46415
#        53162
#        79493
#        97438
#        108997
#        124122
#        139699
#        154689
#        174584
#        183839
#        190425
#        199269
#        212420
#        226705
#        245573
#
# Disc length: 3504 seconds
#
# Revision: 0
# Processed by: cddbd v1.5.2PL0 Copyright (c) Steve Scherf et al.
# Submitted via: ExactAudioCopy v1.0b3
#
DISCID=f40dae12
DTITLE=Rhymes 'n' Rhythm - Playtime For Little People
DYEAR=2007
DGENRE=Children's
TTITLE0=Bare Necessities
TTITLE1=The Simpsons
TTITLE2=You'll Be In My Heart
TTITLE3=Whistle While You Work
TTITLE4=I Give You To This Heart
TTITLE5=A Whole New World
TTITLE6=Winnie The Pooh
TTITLE7=Pokemon
TTITLE8=Scooby Doo
TTITLE9=Can You Feel The Love Tonight
TTITLE10=When You Wish Upon A Star
TTITLE11=Who's Afraid Of The Big Bad Wolf
TTITLE12=The Flintstones
TTITLE13=Inspector Gadget
TTITLE14=Digimon
TTITLE15=The Pink Panther
TTITLE16=Bright Eyes
TTITLE17=Beauty And The Beast
EXTD=
EXTT0=
EXTT1=
EXTT2=
EXTT3=
EXTT4=
EXTT5=
EXTT6=
EXTT7=
EXTT8=
EXTT9=
EXTT10=
EXTT11=
EXTT12=
EXTT13=
EXTT14=
EXTT15=
EXTT16=
EXTT17=
PLAYORDER=
